<?xml version="1.0" encoding="UTF-8" standalone="no"?>
<svg
   width="20"
   height="20"
   viewBox="0 0 20 20"
   fill="none"
   version="1.1"
   id="svg4"
   sodipodi:docname="PlaceholderButtonIcon.svg"
   inkscape:version="1.2.1 (9c6d41e410, 2022-07-14)"
   inkscape:export-filename="2PlaceholderButtonIcon.png"
   inkscape:export-xdpi="96"
   inkscape:export-ydpi="96"
   xmlns:inkscape="http://www.inkscape.org/namespaces/inkscape"
   xmlns:sodipodi="http://sodipodi.sourceforge.net/DTD/sodipodi-0.dtd"
   xmlns="http://www.w3.org/2000/svg"
   xmlns:svg="http://www.w3.org/2000/svg">
  <defs
     id="defs8" />
  <sodipodi:namedview
     id="namedview6"
     pagecolor="#ffffff"
     bordercolor="#000000"
     borderopacity="0.25"
     inkscape:showpageshadow="2"
     inkscape:pageopacity="0.0"
     inkscape:pagecheckerboard="0"
     inkscape:deskcolor="#d1d1d1"
     showgrid="false"
     inkscape:zoom="11.8"
     inkscape:cx="-23.347458"
     inkscape:cy="17.627119"
     inkscape:window-width="1517"
     inkscape:window-height="857"
     inkscape:window-x="2130"
     inkscape:window-y="129"
     inkscape:window-maximized="0"
     inkscape:current-layer="svg4" />
  <path
     d="M2 2L18 18M11.3333 18L2 8.66667M4.66667 18L2 15.3333M18 11.3333L8.66667 2M18 4.66667L15.3333 2"
     stroke="white"
     stroke-opacity="0.5"
     stroke-width="1.5"
     stroke-linecap="round"
     stroke-linejoin="round"
     id="path2" />
  <path
     style="fill:#000000"
     d="m 9.3220339,2.7118644 c -6.2146893,-1.8079096 -3.1073446,-0.9039548 0,0 z"
     id="path221"
     sodipodi:nodetypes="cc" />
  <path
     style="fill:#000000"
     d="m 16.949157,11.949153 c -11.299438,-7.966102 -5.649719,-3.983051 0,0 z"
     id="path223"
     sodipodi:nodetypes="cc" />
  <path
     style="fill:#e6e6e6;stroke-width:0.0847458"
     d="m 20.178266,13.262716 c -13.4521773,-8.8418107 -6.726089,-4.4209053 0,0 z"
     id="path359"
     sodipodi:nodetypes="cc" />
  <path
     style="fill:#e6e6e6"
     d="M 12.118644,0.25423729 11.949153,10.847458 h 7.711864 z"
     id="path477" />
  <path
     style="fill:#e6e6e6"
     d="M 9.0677966,1.8644068 0.76271186,10.847458 8.7288136,10.677966 Z"
     id="path479" />
  <path
     style="fill:#e6e6e6"
     d="M 0.16949153,14.830508 19.830508,14.745763 16.271186,20 c 0,0 -12.7966097,-0.59322 -12.6271182,-0.169492 0.1694915,0.423729 -3.47457627,-5 -3.47457627,-5 z"
     id="path491" />
</svg>
